<svg width="375" height="295" viewBox="0 0 375 295" fill="none" xmlns="http://www.w3.org/2000/svg">
    <ellipse cx="187.5" cy="147.5" rx="187.5" ry="147.5" fill="#401EB5"/>
    <ellipse cx="186.441" cy="108.099" rx="72.0339" ry="49.5034" fill="#D8A982"/>
    <ellipse cx="183.263" cy="189.932" rx="140.89" ry="74.7603" fill="#D8A982"/>
    <ellipse cx="245.763" cy="72.7397" rx="25.4237" ry="34.3493" fill="#AC6C24"/>
    <ellipse cx="125" cy="72.7397" rx="25.4237" ry="34.3493" fill="#AC6C24"/>
    <ellipse cx="125" cy="216.199" rx="42.3729" ry="26.2671" fill="#AC6C24"/>
    <ellipse cx="134.534" cy="249.538" rx="24.3644" ry="9.09247" fill="#AC6C24"/>
    <ellipse cx="229.873" cy="249.538" rx="24.3644" ry="9.09247" fill="#AC6C24"/>
    <ellipse cx="245.763" cy="216.199" rx="42.3729" ry="26.2671" fill="#AC6C24"/>
    <ellipse cx="169.492" cy="111.13" rx="8.47458" ry="10.1027" fill="#150505"/>
    <ellipse cx="207.627" cy="111.13" rx="8.47458" ry="10.1027" fill="#150505"/>
    <ellipse cx="187.5" cy="153.562" rx="11.6525" ry="4.0411" fill="#150505"/>
    <path d="M103.814 147.038C104.604 141.006 122.176 139.418 126.786 139.418C133.402 139.418 141.421 139.707 144.765 146.086" stroke="black" stroke-linecap="round"/>
    <path d="M220.339 147.038C221.13 141.006 238.701 139.418 243.312 139.418C249.928 139.418 257.946 139.707 261.29 146.086" stroke="black" stroke-linecap="round"/>
    <path d="M173.729 159.221C173.946 163.645 180.893 166.944 184.113 167.512C187.104 168.04 190.09 167.51 192.667 165.647C195.505 163.596 196.851 160.202 199.153 157.603" stroke="black" stroke-linecap="round"/>
</svg>
